<?xml version="1.0" encoding="UTF-8" standalone="no"?>
<!DOCTYPE svg PUBLIC "-//W3C//DTD SVG 1.1//EN" "http://www.w3.org/Graphics/SVG/1.1/DTD/svg11.dtd">
<svg width="100%" height="100%" viewBox="0 0 4167 4167" version="1.1" xmlns="http://www.w3.org/2000/svg"
     xml:space="preserve"
     style="fill-rule:evenodd;clip-rule:evenodd;stroke-linejoin:round;stroke-miterlimit:1.41421;">
    <g transform="matrix(63.1052,0,0,63.1052,-208815,-62001.7)">
        <g transform="matrix(1,0,0,1,-6.2454,-1.0296)">
            <path d="M3367.24,1042.98L3330.98,1042.98L3330.98,998.809L3339.45,998.809C3340.23,998.809 3340.86,998.17 3340.86,997.391L3340.86,989.178L3367.24,989.178L3367.24,1042.98ZM3367.32,986.178L3340.33,986.178L3337.33,989.178L3330.98,995.525L3327.98,998.525L3327.98,1043.06C3327.98,1044.67 3329.29,1045.98 3330.9,1045.98L3367.32,1045.98C3368.93,1045.98 3370.24,1044.67 3370.24,1043.06L3370.24,989.095C3370.24,987.486 3368.93,986.178 3367.32,986.178Z" style="fill:url(#_Linear1);"/>
            <path d="M3363.52,1033.27L3334.69,1033.27C3334.28,1033.27 3333.94,1033.61 3333.94,1034.02C3333.94,1034.44 3334.28,1034.77 3334.69,1034.77L3363.52,1034.77C3363.94,1034.77 3364.27,1034.44 3364.27,1034.02C3364.27,1033.61 3363.94,1033.27 3363.52,1033.27Z" style="fill:url(#_Linear2);"/>
            <path d="M3333.94,1007.02C3333.94,1007.44 3334.28,1007.77 3334.69,1007.77L3363.52,1007.77C3363.94,1007.77 3364.27,1007.44 3364.27,1007.02C3364.27,1006.61 3363.94,1006.27 3363.52,1006.27L3334.69,1006.27C3334.28,1006.27 3333.94,1006.61 3333.94,1007.02Z" style="fill:url(#_Linear3);"/>
            <path d="M3363.52,1011.68L3334.69,1011.68C3334.28,1011.68 3333.94,1012.01 3333.94,1012.43C3333.94,1012.84 3334.28,1013.18 3334.69,1013.18L3363.52,1013.18C3363.94,1013.18 3364.27,1012.84 3364.27,1012.43C3364.27,1012.01 3363.94,1011.68 3363.52,1011.68Z" style="fill:url(#_Linear4);"/>
            <path d="M3363.52,1017.08L3334.69,1017.08C3334.28,1017.08 3333.94,1017.41 3333.94,1017.83C3333.94,1018.24 3334.28,1018.58 3334.69,1018.58L3363.52,1018.58C3363.94,1018.58 3364.27,1018.24 3364.27,1017.83C3364.27,1017.41 3363.94,1017.08 3363.52,1017.08Z" style="fill:url(#_Linear5);"/>
            <path d="M3363.52,1022.48L3334.69,1022.48C3334.28,1022.48 3333.94,1022.81 3333.94,1023.23C3333.94,1023.64 3334.28,1023.98 3334.69,1023.98L3363.52,1023.98C3363.94,1023.98 3364.27,1023.64 3364.27,1023.23C3364.27,1022.81 3363.94,1022.48 3363.52,1022.48Z" style="fill:url(#_Linear6);"/>
            <path d="M3363.52,1027.87L3334.69,1027.87C3334.28,1027.87 3333.94,1028.21 3333.94,1028.62C3333.94,1029.04 3334.28,1029.37 3334.69,1029.37L3363.52,1029.37C3363.94,1029.37 3364.27,1029.04 3364.27,1028.62C3364.27,1028.21 3363.94,1027.87 3363.52,1027.87Z" style="fill:url(#_Linear7);"/>
        </g>
    </g>
    <defs>
        <linearGradient id="_Linear1" x1="0" y1="0" x2="1" y2="0" gradientUnits="userSpaceOnUse" gradientTransform="matrix(41.0372,48.9062,-48.9062,41.0372,3330.76,994.208)"><stop offset="0" style="stop-color:rgb(246,147,82);stop-opacity:1"/><stop offset="0.5" style="stop-color:rgb(242,117,33);stop-opacity:1"/><stop offset="1" style="stop-color:rgb(212,98,42);stop-opacity:1"/></linearGradient>
        <linearGradient id="_Linear2" x1="0" y1="0" x2="1" y2="0" gradientUnits="userSpaceOnUse" gradientTransform="matrix(12.8763,15.3454,-15.3454,12.8763,3342.67,1026.35)"><stop offset="0" style="stop-color:rgb(77,77,77);stop-opacity:1"/><stop offset="1" style="stop-color:rgb(26,26,26);stop-opacity:1"/></linearGradient>
        <linearGradient id="_Linear3" x1="0" y1="0" x2="1" y2="0" gradientUnits="userSpaceOnUse" gradientTransform="matrix(12.8763,15.3454,-15.3454,12.8763,3342.67,999.352)"><stop offset="0" style="stop-color:rgb(77,77,77);stop-opacity:1"/><stop offset="1" style="stop-color:rgb(26,26,26);stop-opacity:1"/></linearGradient>
        <linearGradient id="_Linear4" x1="0" y1="0" x2="1" y2="0" gradientUnits="userSpaceOnUse" gradientTransform="matrix(12.8763,15.3454,-15.3454,12.8763,3342.67,1004.75)"><stop offset="0" style="stop-color:rgb(77,77,77);stop-opacity:1"/><stop offset="1" style="stop-color:rgb(26,26,26);stop-opacity:1"/></linearGradient>
        <linearGradient id="_Linear5" x1="0" y1="0" x2="1" y2="0" gradientUnits="userSpaceOnUse" gradientTransform="matrix(12.8763,15.3454,-15.3454,12.8763,3342.67,1010.15)"><stop offset="0" style="stop-color:rgb(77,77,77);stop-opacity:1"/><stop offset="1" style="stop-color:rgb(26,26,26);stop-opacity:1"/></linearGradient>
        <linearGradient id="_Linear6" x1="0" y1="0" x2="1" y2="0" gradientUnits="userSpaceOnUse" gradientTransform="matrix(12.8763,15.3454,-15.3454,12.8763,3342.67,1015.55)"><stop offset="0" style="stop-color:rgb(77,77,77);stop-opacity:1"/><stop offset="1" style="stop-color:rgb(26,26,26);stop-opacity:1"/></linearGradient>
        <linearGradient id="_Linear7" x1="0" y1="0" x2="1" y2="0" gradientUnits="userSpaceOnUse" gradientTransform="matrix(12.8763,15.3454,-15.3454,12.8763,3342.67,1020.95)"><stop offset="0" style="stop-color:rgb(77,77,77);stop-opacity:1"/><stop offset="1" style="stop-color:rgb(26,26,26);stop-opacity:1"/></linearGradient>
    </defs>
</svg>
