<?xml version="1.0" encoding="UTF-8" standalone="no"?>
<!DOCTYPE svg PUBLIC "-//W3C//DTD SVG 1.1//EN" "http://www.w3.org/Graphics/SVG/1.1/DTD/svg11.dtd">
<svg width="100%" height="100%" viewBox="0 0 4167 4167" version="1.1" xmlns="http://www.w3.org/2000/svg"
     xml:space="preserve"
     style="fill-rule:evenodd;clip-rule:evenodd;stroke-linejoin:round;stroke-miterlimit:1.41421;">
    <g transform="matrix(57.8359,0,0,57.8359,-12500.2,-31958)">
        <g>
            <path d="M282.71,606C282.679,603.569 280.854,601.704 278.477,601.591C276.096,601.476 274.072,603.196 273.81,605.543C273.759,606.009 273.745,606.481 273.742,606.95C273.734,608.622 273.746,610.295 273.73,611.967C273.727,612.309 273.633,612.651 273.583,612.979C273.328,613.026 273.178,613.079 273.028,613.078C259.127,613.072 245.227,613.061 231.327,613.049C231.278,613.049 231.225,613.03 231.182,613.007C231.137,612.982 231.102,612.94 230.958,612.816C230.94,612.403 230.901,611.893 230.898,611.382C230.889,609.605 230.944,607.826 230.879,606.052C230.763,602.897 227.909,600.875 224.983,601.821C223.171,602.407 221.937,604.034 221.912,606.114C221.863,609.929 221.864,613.744 221.913,617.559C221.937,619.368 222.806,620.741 224.438,621.599C224.746,621.761 225.716,621.808 226.001,621.808C243.997,621.808 260.271,621.714 278.267,621.714C278.609,621.714 279.958,621.754 280.311,621.552C281.84,620.676 282.702,619.37 282.715,617.603C282.744,613.736 282.76,609.867 282.71,606Z" style="fill:url(#_Linear1);fill-rule:nonzero;"/>
            <path d="M235.952,591.322C240.718,596.091 245.486,600.859 250.255,605.626C250.514,605.885 250.76,606.159 251.042,606.39C251.85,607.048 252.798,607.038 253.616,606.374C253.818,606.21 253.998,606.018 254.183,605.833C259.1,600.919 264.017,596.004 268.929,591.085C269.186,590.828 269.452,590.563 269.641,590.256C270.21,589.33 269.684,588.152 268.615,587.96C268.208,587.888 267.783,587.901 267.366,587.9C265.745,587.893 264.124,587.902 262.504,587.894C262.042,587.892 261.579,587.852 260.906,587.82C260.89,587.077 260.868,586.511 260.868,585.945C260.866,577.268 260.868,568.591 260.864,559.914C260.864,559.34 260.877,558.759 260.799,558.193C260.59,556.703 259.363,555.53 257.866,555.357C257.453,555.309 257.031,555.324 256.613,555.323C253.999,555.321 251.386,555.321 248.772,555.322C248.198,555.323 247.621,555.302 247.048,555.338C245.252,555.453 243.924,556.766 243.797,558.546C243.763,559.015 243.782,559.486 243.782,559.957C243.782,568.634 243.784,577.31 243.776,585.987C243.775,586.551 243.885,587.131 243.608,587.776C243.237,587.814 242.833,587.888 242.43,587.891C240.757,587.905 239.084,587.894 237.412,587.899C236.994,587.9 236.571,587.883 236.16,587.939C234.908,588.113 234.363,589.375 235.099,590.406C235.339,590.743 235.657,591.027 235.952,591.322Z" style="fill:url(#_Linear2);fill-rule:nonzero;"/>
        </g>
    </g>
    <defs>
        <linearGradient id="_Linear1" x1="0" y1="0" x2="1" y2="0" gradientUnits="userSpaceOnUse" gradientTransform="matrix(32.8491,39.148,-39.148,32.8491,235.895,592.234)"><stop offset="0" style="stop-color:rgb(77,77,77);stop-opacity:1"/><stop offset="1" style="stop-color:rgb(26,26,26);stop-opacity:1"/></linearGradient>
        <linearGradient id="_Linear2" x1="0" y1="0" x2="1" y2="0" gradientUnits="userSpaceOnUse" gradientTransform="matrix(28.2991,33.7256,-33.7256,28.2991,237.971,562.031)"><stop offset="0" style="stop-color:rgb(246,147,82);stop-opacity:1"/><stop offset="0.5" style="stop-color:rgb(242,117,33);stop-opacity:1"/><stop offset="1" style="stop-color:rgb(212,98,42);stop-opacity:1"/></linearGradient>
    </defs>
</svg>
