<?xml version="1.0" encoding="UTF-8" standalone="no"?>
<svg
   xmlns:dc="http://purl.org/dc/elements/1.1/"
   xmlns:cc="http://creativecommons.org/ns#"
   xmlns:rdf="http://www.w3.org/1999/02/22-rdf-syntax-ns#"
   xmlns:svg="http://www.w3.org/2000/svg"
   xmlns="http://www.w3.org/2000/svg"
   viewBox="0 0 474.85333 641.56"
   height="641.56"
   width="474.85333"
   xml:space="preserve"
   id="svg2"
   version="1.1"><metadata
     id="metadata8"><rdf:RDF><cc:Work
         rdf:about=""><dc:format>image/svg+xml</dc:format><dc:type
           rdf:resource="http://purl.org/dc/dcmitype/StillImage" /></cc:Work></rdf:RDF></metadata><defs
     id="defs6" /><g
     transform="matrix(1.3333333,0,0,-1.3333333,0,641.56)"
     id="g10"><g
       transform="scale(0.1)"
       id="g12"><path
         id="path14"
         style="fill:#231f20;fill-opacity:1;fill-rule:nonzero;stroke:none"
         d="m 3350.85,320.621 c 0,-60.75 -49.34,-110.172 -110.1,-110.172 H 327.316 c -60.621,0 -110.035,49.281 -110.168,109.91 l -5.832,3437.871 30.176,-20.77 c 91.797,-63.07 199.512,-96.43 311.602,-96.43 H 837.098 V 2190.48 c 0,-69.25 41.523,-130.73 105.726,-156.66 59.556,-23.82 130.396,-11.47 176.296,31.3 l 175.23,133.39 172.31,-131 c 49.75,-45.83 117.8,-58.3 179.22,-33.69 64.2,25.93 105.72,87.41 105.72,156.66 v 1450.55 h 1561.98 l 5.56,-5.7 c 20.43,-20.77 31.71,-48.23 31.71,-77.34 z M 1541.08,3641.03 V 2275.18 l -141.94,108.05 c -60.49,45.89 -149.09,45.89 -209.59,0 L 1047.62,2275.18 V 3641.03 Z M 210.449,4258.26 c 0,189.16 153.879,342.97 342.906,342.97 H 3152.14 V 3877.61 L 792.133,3851.48 H 553.094 c -187.969,0 -341.578,152.95 -342.512,340.98 z M 3561.37,3557.99 c 0,86.29 -33.69,167.14 -94.98,227.7 -27.2,26.86 -58.23,48.35 -92.46,63.94 l -11.27,5.1 v 746.5 h 93.39 c 58.09,0 105.32,47.22 105.32,105.19 0,58.04 -47.23,105.26 -105.32,105.26 H 553.355 C 248.258,4811.68 0,4563.42 0,4258.32 L 6.69922,319.949 C 7.02734,143.531 150.828,0 327.316,0 H 3240.75 c 176.82,0 320.62,143.859 320.62,320.621 V 3557.99" /></g></g></svg>