<?xml version="1.0" encoding="UTF-8" standalone="no"?>
<!DOCTYPE svg PUBLIC "-//W3C//DTD SVG 1.1//EN" "http://www.w3.org/Graphics/SVG/1.1/DTD/svg11.dtd">
<svg width="100%" height="100%" viewBox="0 0 2030 2030" version="1.1" xmlns="http://www.w3.org/2000/svg"
     xml:space="preserve"
     style="fill-rule:evenodd;clip-rule:evenodd;stroke-linejoin:round;stroke-miterlimit:1.41421;">
    <g transform="matrix(4.16667,0,0,4.16667,0,0)">
        <path d="M243.387,468.891C119.168,468.891 18.108,367.852 18.108,243.652C18.108,119.433 119.168,18.374 243.387,18.374C367.56,18.374 468.586,119.433 468.586,243.652C468.586,367.852 367.56,468.891 243.387,468.891ZM243.387,0.266C109.183,0.266 0,109.448 0,243.652C0,377.83 109.183,486.999 243.387,486.999C377.552,486.999 486.702,377.83 486.702,243.652C486.702,109.448 377.552,0.266 243.387,0.266Z" style="fill:rgb(35,31,32);fill-rule:nonzero;"/>
        <path d="M243.387,115.896C238.395,115.896 234.333,119.964 234.333,124.957L234.333,239.85L170.614,303.595C167.098,307.124 167.098,312.862 170.614,316.392C173.985,319.795 180.054,319.802 183.398,316.399L247.183,252.654C247.283,252.553 247.403,252.334 247.536,252.108C247.675,251.856 247.821,251.61 247.988,251.364L248.46,250.898C250.986,249.117 252.441,246.471 252.441,243.645L252.441,124.957C252.441,119.964 248.379,115.896 243.387,115.896Z" style="fill:rgb(35,31,32);fill-rule:nonzero;"/>
        <path d="M61.418,235.562L49.651,235.529C45.178,235.529 41.561,239.145 41.561,243.592C41.548,245.74 42.366,247.747 43.875,249.27C45.403,250.805 47.444,251.656 49.625,251.656L61.358,251.689C65.832,251.689 69.448,248.073 69.448,243.625C69.462,241.485 68.631,239.471 67.115,237.942C65.593,236.406 63.565,235.562 61.418,235.562Z" style="fill:rgb(35,31,32);fill-rule:nonzero;"/>
        <path d="M442.859,249.289C444.381,247.76 445.212,245.726 445.2,243.566C445.2,239.105 441.583,235.489 437.135,235.489L437.102,235.489L425.283,235.562C423.116,235.562 421.094,236.406 419.579,237.929C418.056,239.457 417.226,241.492 417.239,243.645C417.239,248.086 420.855,251.689 425.302,251.689L437.163,251.656C439.323,251.656 441.343,250.812 442.859,249.289Z" style="fill:rgb(35,31,32);fill-rule:nonzero;"/>
        <path d="M243.427,417.497L243.367,417.497C238.953,417.497 235.337,421.094 235.304,425.508L235.237,437.301C235.204,441.748 238.794,445.391 243.241,445.424C247.714,445.424 251.332,441.834 251.358,437.42L251.464,425.615C251.477,423.467 250.653,421.44 249.137,419.904C247.622,418.369 245.594,417.511 243.427,417.497Z" style="fill:rgb(35,31,32);fill-rule:nonzero;"/>
        <path d="M243.341,41.854C238.893,41.854 235.277,45.47 235.277,49.917L235.277,61.644C235.277,66.092 238.893,69.708 243.341,69.708C247.788,69.708 251.405,66.092 251.405,61.644L251.405,49.917C251.405,45.47 247.788,41.854 243.341,41.854Z" style="fill:rgb(35,31,32);fill-rule:nonzero;"/>
    </g>
</svg>
