<?xml version="1.0" encoding="UTF-8"?>
<!DOCTYPE svg PUBLIC "-//W3C//DTD SVG 1.1//EN" "http://www.w3.org/Graphics/SVG/1.1/DTD/svg11.dtd">
<!-- Creator: CorelDRAW X6 -->
<svg xmlns="http://www.w3.org/2000/svg" xml:space="preserve" width="6.36111in" height="6.36111in" version="1.1" style="shape-rendering:geometricPrecision; text-rendering:geometricPrecision; image-rendering:optimizeQuality; fill-rule:evenodd; clip-rule:evenodd"
viewBox="0 0 6361 6361"
 xmlns:xlink="http://www.w3.org/1999/xlink">
 <defs>
  <style type="text/css">
   <![CDATA[
    .fil0 {fill:#373435;fill-rule:nonzero}
   ]]>
  </style>
 </defs>
 <g id="Layer_x0020_1">
  <metadata id="CorelCorpID_0Corel-Layer"/>
  <path class="fil0" d="M114 -14c-63,1 -114,52 -114,115l0 5908c0,194 158,351 351,351l5908 0c64,0 115,-52 115,-115 0,-64 -52,-115 -115,-115l-5908 0c-66,0 -121,-54 -121,-121l0 -5908c0,-63 -51,-115 -114,-115l-2 0z"/>
  <path class="fil0" d="M2079 5156c0,59 -50,110 -110,110l-741 0c-59,0 -110,-50 -110,-110l0 -2694c0,-59 50,-110 110,-110l741 0c59,0 110,50 110,110l0 2694zm-110 -3034l-741 0c-188,0 -340,153 -340,340l0 2694c0,188 153,340 340,340l741 0c188,0 340,-153 340,-340l0 -2694c0,-188 -153,-340 -340,-340z"/>
  <path class="fil0" d="M4019 5156c0,59 -50,110 -110,110l-741 0c-59,0 -110,-50 -110,-110l0 -1122c0,-59 50,-110 110,-110l741 0c59,0 110,50 110,110l0 1122zm-110 -1462l-741 0c-188,0 -340,153 -340,340l0 1122c0,188 153,340 340,340l741 0c188,0 340,-153 340,-340l0 -1122c0,-188 -153,-340 -340,-340z"/>
  <path class="fil0" d="M4992 562c0,-59 50,-110 110,-110l741 0c59,0 110,50 110,110l0 4595c0,59 -50,110 -110,110l-741 0c-59,0 -110,-50 -110,-110l0 -4595zm-231 4595c0,188 153,340 340,340l741 0c188,0 340,-153 340,-340l0 -4595c0,-188 -153,-340 -340,-340l-741 0c-188,0 -340,153 -340,340l0 4595z"/>
 </g>
</svg>
