<?xml version="1.0" encoding="UTF-8" standalone="no"?>
<!DOCTYPE svg PUBLIC "-//W3C//DTD SVG 1.1//EN" "http://www.w3.org/Graphics/SVG/1.1/DTD/svg11.dtd">
<svg width="100%" height="100%" viewBox="0 0 2017 1384" version="1.1" xmlns="http://www.w3.org/2000/svg" xmlns:xlink="http://www.w3.org/1999/xlink" xml:space="preserve" xmlns:serif="http://www.serif.com/" style="fill-rule:evenodd;clip-rule:evenodd;stroke-linejoin:round;stroke-miterlimit:1.41421;">
    <g transform="matrix(4.16667,0,0,4.16667,0,0)">
        <path d="M467.627,332L403.093,332C397.334,332 392.665,327.332 392.665,321.571C392.665,315.811 397.334,311.142 403.093,311.142L458.275,311.142L462.109,276.065C464.511,254.087 450.167,233.403 428.738,227.955C428.699,227.945 428.563,227.91 428.523,227.898C420.285,225.804 411.682,224.728 403.073,224.728C403.06,224.728 403.05,224.734 403.034,224.728C397.275,224.728 392.607,220.06 392.604,214.301C392.603,208.529 397.275,203.924 403.073,203.869C413.415,203.869 423.745,205.163 433.78,207.713C433.82,207.723 433.957,207.759 433.997,207.771C465.319,215.736 486.37,246.083 482.844,278.332L477.994,322.705C477.416,327.995 472.948,332 467.627,332Z" style="fill:rgb(35,31,32);fill-rule:nonzero;"/>
        <path d="M80.135,332L15.602,332C10.28,332 5.813,327.995 5.235,322.705L0.384,278.332C-3.141,246.083 17.909,215.736 49.349,207.74C59.483,205.163 69.815,203.869 80.156,203.869C80.171,203.869 80.185,203.869 80.198,203.869C85.959,203.871 90.626,208.541 90.625,214.301C90.622,220.06 85.953,224.728 80.195,224.728C80.168,224.734 80.168,224.728 80.156,224.728C71.546,224.728 62.944,225.804 54.587,227.929C33.062,233.403 18.717,254.087 21.119,276.065L24.954,311.142L80.135,311.142C85.895,311.142 90.564,315.811 90.564,321.571C90.564,327.332 85.895,332 80.135,332Z" style="fill:rgb(35,31,32);fill-rule:nonzero;"/>
        <path d="M337.894,255.237L331.526,313.516L154.636,313.516L148.268,255.216C144.325,219.137 167.868,185.173 203.031,176.22C229.166,169.556 256.858,169.563 283.103,176.241C318.28,185.187 341.837,219.151 337.894,255.237ZM356.268,257.249C361.203,212.059 331.636,169.515 287.5,158.288C272.958,154.593 257.988,152.746 243.033,152.746C228.049,152.746 213.052,154.6 198.483,158.308C154.443,169.528 124.959,212.052 129.894,257.222L137.172,323.764C137.682,328.457 141.637,332 146.352,332L339.81,332C344.524,332 348.48,328.457 349.004,323.764L356.268,257.249Z" style="fill:rgb(35,31,32);fill-rule:nonzero;"/>
        <path d="M243.081,0.839C209.245,0.839 181.717,28.367 181.717,62.202C181.717,96.038 209.245,123.564 243.081,123.564C276.916,123.564 304.443,96.038 304.443,62.202C304.443,28.367 276.916,0.839 243.081,0.839ZM243.081,19.244C266.806,19.244 286.039,38.477 286.039,62.202C286.039,85.927 266.806,105.16 243.081,105.16C219.356,105.16 200.123,85.927 200.123,62.202C200.123,38.477 219.356,19.244 243.081,19.244Z" style="fill:rgb(35,31,32);fill-rule:nonzero;"/>
        <path d="M410.574,76.718L410.573,76.718C390.829,76.719 372.701,88.287 364.39,106.19C352.576,131.643 363.672,161.963 389.124,173.779C395.898,176.923 403.1,178.517 410.532,178.517C430.276,178.517 448.404,166.949 456.714,149.045C468.529,123.592 457.433,93.272 431.981,81.457C425.207,78.312 418.005,76.718 410.574,76.718ZM410.573,95.511C415.097,95.51 419.693,96.472 424.068,98.502C440.148,105.966 447.133,125.053 439.668,141.133C434.234,152.839 422.64,159.725 410.532,159.725C406.007,159.725 401.411,158.764 397.037,156.733C380.957,149.269 373.972,130.182 381.436,114.102C386.871,102.396 398.465,95.511 410.573,95.511Z" style="fill:rgb(35,31,32);fill-rule:nonzero;"/>
        <path d="M72.698,76.718L72.697,76.718C52.953,76.719 34.825,88.287 26.515,106.19C14.7,131.643 25.795,161.963 51.248,173.779C58.022,176.923 65.225,178.517 72.655,178.517C92.4,178.517 110.528,166.949 118.839,149.045C130.653,123.592 119.558,93.272 94.105,81.457C87.33,78.312 80.129,76.718 72.698,76.718ZM72.697,95.511C77.222,95.51 81.818,96.472 86.192,98.502C102.273,105.966 109.257,125.053 101.793,141.133C96.358,152.839 84.764,159.725 72.655,159.725C68.131,159.725 63.535,158.764 59.161,156.733C43.08,149.269 36.096,130.182 43.561,114.102C48.994,102.396 60.589,95.511 72.697,95.511Z" style="fill:rgb(35,31,32);fill-rule:nonzero;"/>
    </g>
</svg>
