<?xml version="1.0" encoding="UTF-8" standalone="no"?>
<svg
   xmlns:dc="http://purl.org/dc/elements/1.1/"
   xmlns:cc="http://creativecommons.org/ns#"
   xmlns:rdf="http://www.w3.org/1999/02/22-rdf-syntax-ns#"
   xmlns:svg="http://www.w3.org/2000/svg"
   xmlns="http://www.w3.org/2000/svg"
   viewBox="0 0 287.90668 635.94666"
   height="635.94666"
   width="287.90668"
   xml:space="preserve"
   id="svg2"
   version="1.1"><metadata
     id="metadata8"><rdf:RDF><cc:Work
         rdf:about=""><dc:format>image/svg+xml</dc:format><dc:type
           rdf:resource="http://purl.org/dc/dcmitype/StillImage" /></cc:Work></rdf:RDF></metadata><defs
     id="defs6" /><g
     transform="matrix(1.3333333,0,0,-1.3333333,0,635.94667)"
     id="g10"><g
       transform="scale(0.1)"
       id="g12"><path
         id="path14"
         style="fill:#100f0d;fill-opacity:1;fill-rule:nonzero;stroke:none"
         d="M 1816.13,1045.11 C 1717.19,940.469 1581.17,868.609 1410.03,829.898 V 2171.94 c 223.27,-79.34 383.05,-177.07 476.73,-292.1 107.7,-132.26 107.7,-259.67 107.69,-362.04 l 0.14,-6.69 c 0.15,-2.62 12.46,-264.07 -178.46,-466 z M 1077.7,796.09 c -72.73,0 -141.415,5.23 -205.97,15.64 v 1506.63 c 61.633,-18.64 121.661,-33.79 178.16,-46.09 69.95,-15.22 136,-31.64 198.29,-49.17 V 804.211 C 1194.06,798.879 1137.3,796.09 1077.7,796.09 Z M 276.102,2896.77 c -105.993,162.72 -100.981,303.9 -100.95,304.71 l 0.145,4.9 c 0,223.58 66.844,398.52 198.668,519.97 98.387,90.64 221.449,141.72 335.918,170.28 V 2552.99 c -195.172,87.5 -342.453,203.57 -433.781,343.78 z m 780.858,1033.29 6.97,-0.3 c 64.73,0 126.04,-4.34 184.25,-12.5 V 2393.44 c -51.53,13.75 -105.79,26.96 -163.32,39.48 -75.17,16.36 -146.255,35.66 -213.13,57.68 v 1434.17 c 107.032,11.17 183.49,5.43 185.23,5.29 z m 1101.9,-2411.91 c 0.01,196.2 -0.58,579.87 -748.83,827.22 v 1536.39 c 131.56,-41.05 241.36,-108.32 328.26,-201.39 261.59,-280.17 235.42,-708.35 235.13,-712.64 -3.18,-45.23 30.85,-84.51 76.08,-87.77 45.39,-3.27 84.64,30.79 87.92,76.08 1.46,20.33 32.36,501.96 -277.93,835.43 -118.15,126.97 -268.63,214.32 -449.46,261.44 v 635.74 c 0,44.69 -36.23,80.93 -80.93,80.93 -44.69,0 -80.92,-36.24 -80.92,-80.93 V 4083.4 c -57.82,7.04 -118.17,10.65 -181.03,10.77 -18.46,1.35 -93.31,5.65 -195.42,-3.7 v 598.18 c 0,44.69 -36.23,80.93 -80.925,80.93 v 0 c -44.696,0 -80.922,-36.24 -80.922,-80.93 V 4065.88 C 563.484,4034.31 397.707,3971.4 263.395,3848.03 96.1797,3694.44 11.2344,3479.11 10.8906,3208.02 9.98828,3181.73 9.39063,3011.63 131.109,2818.32 267.543,2601.63 488.379,2463.18 709.883,2374.79 V 851.891 C 590.227,892.898 488.918,956.27 407.242,1042.14 c -260.246,273.62 -242.59,689.23 -242.39,693.26 2.437,45.33 -32.344,84.05 -77.6762,86.49 C 41.9492,1824.22 3.11719,1789.55 0.679688,1744.2 -0.382813,1724.42 -21.7891,1255.82 287.023,929.98 400.035,810.73 541.555,726.961 709.883,679.148 V 80.9219 C 709.883,36.2383 746.109,0 790.805,0 V 0 C 835.5,0 871.73,36.2383 871.73,80.9219 V 645.398 c 65.387,-9.117 134.04,-13.718 205.97,-13.718 59.06,0 115.89,2.449 170.48,7.3 V 80.9219 C 1248.18,36.2383 1284.41,0 1329.1,0 c 44.7,0 80.93,36.2383 80.93,80.9219 V 661.73 c 221.6,43.692 398.35,134.86 527.62,272.622 229.57,244.638 222.88,547.818 221.21,583.798" /></g></g></svg>