<?xml version="1.0" encoding="UTF-8" standalone="no"?>
<svg
        xmlns:dc="http://purl.org/dc/elements/1.1/"
        xmlns:cc="http://creativecommons.org/ns#"
        xmlns:rdf="http://www.w3.org/1999/02/22-rdf-syntax-ns#"
        xmlns="http://www.w3.org/2000/svg"
        viewBox="0 0 646.84003 349.13333"
        height="349.13333"
        width="646.84003"
        xml:space="preserve"
        id="svg2"
        version="1.1"><metadata
     id="metadata8"><rdf:RDF><cc:Work
         rdf:about=""><dc:format>image/svg+xml</dc:format><dc:type
           rdf:resource="http://purl.org/dc/dcmitype/StillImage" /></cc:Work></rdf:RDF></metadata><defs
     id="defs6"><clipPath
       id="clipPath20"
       clipPathUnits="userSpaceOnUse"><path
         id="path18"
         d="M 0,0 H 4851 V 2618.54 H 0 Z" /></clipPath></defs><g
     transform="matrix(1.3333333,0,0,-1.3333333,0,349.13333)"
     id="g10"><g
       transform="scale(0.1)"
       id="g12"><g
         id="g14"><g
           clip-path="url(#clipPath20)"
           id="g16"><path
             id="path22"
             style="fill:#211d1d;fill-opacity:1;fill-rule:nonzero;stroke:none"
             d="m 3622.62,1426.24 c -10.85,5.32 -20.31,8.05 -30.18,9.25 l -13.65,0.55 -577.1,-16.17 c -47.48,-1.4 -85.08,-41.1 -83.82,-88.65 0.7,-23.24 10.51,-44.88 27.59,-60.92 16.8,-15.61 38.79,-23.52 60.91,-22.89 l 361.94,10.15 -442.53,-442.591 -13.86,9.172 c -144.52,96.058 -312.65,146.898 -486.22,146.898 -448.13,0 -824.28,-335.539 -874.97,-780.519 l -2.03,-17.981 H 172.527 v 20.301 c 0,561.832 207.957,1100.01 585.649,1515.3 l 14.355,15.75 146.34,-146.27 c 32.629,-32.63 89.419,-32.63 122.049,0 33.6,33.61 33.6,88.37 0,122.05 l -146.416,146.27 15.824,14.36 c 386.512,351.49 886.522,558.54 1407.752,583.05 l 21.29,0.98 v -500.36 c 0,-47.55 38.72,-86.27 86.33,-86.27 47.54,0 86.26,38.72 86.26,86.27 v 500.36 l 21.29,-0.98 C 3054.48,2418.84 3554.49,2211.79 3941,1860.3 l 15.82,-14.36 -146.4,-146.27 c -33.62,-33.68 -33.62,-88.44 0,-122.05 32.49,-32.7 89.41,-32.7 122.04,0 l 146.34,146.27 14.35,-15.75 c 377.69,-415.29 585.66,-953.468 585.66,-1515.3 V 172.539 H 3302.63 l -2.03,17.981 c -21.29,187.039 -100.62,359.351 -229.46,498.199 l -13.3,14.351 426.77,426.7 -18.69,-353.872 c -1.26,-23.039 6.58,-45.168 21.98,-62.25 15.41,-17.16 36.55,-27.238 59.52,-28.429 0.14,0 0.28,0 0.42,0 50.27,0 87.95,35.851 90.32,81.511 l 30.61,578.5 c 0.41,15.47 -1.19,19.25 -1.19,19.25 l -14.92,35.43 c -17.47,19.97 -30.04,26.33 -30.04,26.33 z m 25.14,-20.1 -20.38,17.3 M 2627.36,176.602 l -0.42,19.878 c -0.42,18.141 -3.09,35.852 -8.06,52.661 l -3.36,11.621 320.48,320.476 14.36,-15.816 c 93.34,-103 153.84,-229.32 175.05,-365.363 l 3.64,-23.457 z M 2482.07,386.09 c -18.63,5.469 -37.6,8.191 -56.44,8.191 -109.02,0 -199.28,-88.711 -201.24,-197.73 l -0.35,-19.949 h -501.76 l 3.64,23.457 c 53.29,341.203 354.09,598.453 699.78,598.453 123.72,0 245.77,-32.692 352.9,-94.532 l 22.97,-13.23 -307.95,-308.02 z m -56.44,2232.45 c -647.89,0 -1257,-252.35 -1715.138,-710.49 C 252.352,1449.84 -0.00390625,840.73 -0.00390625,192.84 -0.00390625,86.5508 86.5469,0.0117188 192.836,0.0117188 H 4658.49 c 106.29,0 192.84,86.5390812 192.84,192.8282812 0,647.89 -252.35,1257 -710.49,1715.21 -458.14,458.14 -1067.25,710.49 -1715.21,710.49" /></g></g></g></g></svg>