<?xml version="1.0" encoding="UTF-8" standalone="no"?>
<!DOCTYPE svg PUBLIC "-//W3C//DTD SVG 1.1//EN" "http://www.w3.org/Graphics/SVG/1.1/DTD/svg11.dtd">
<svg width="100%" height="100%" viewBox="0 0 2005 1313" version="1.1" xmlns="http://www.w3.org/2000/svg" xmlns:xlink="http://www.w3.org/1999/xlink" xml:space="preserve" xmlns:serif="http://www.serif.com/" style="fill-rule:evenodd;clip-rule:evenodd;stroke-linejoin:round;stroke-miterlimit:1.41421;">
    <g transform="matrix(4.16667,0,0,4.16667,0,0)">
        <path d="M462.965,242.059L456.913,297.436L288.831,297.436L282.78,242.039C279.034,207.756 301.405,175.484 334.817,166.977C359.65,160.644 385.963,160.651 410.902,166.996C444.327,175.496 466.71,207.769 462.965,242.059ZM480.424,243.971C485.113,201.031 457.019,160.605 415.079,149.936C401.262,146.426 387.037,144.671 372.827,144.671C358.589,144.671 344.339,146.433 330.495,149.956C288.648,160.618 260.631,201.024 265.321,243.945L272.236,307.174C272.721,311.634 276.48,315 280.959,315L464.786,315C469.265,315 473.024,311.634 473.522,307.174L480.424,243.971Z" style="fill:rgb(35,31,32);fill-rule:nonzero;"/>
        <path d="M146.092,166.387C179.531,174.887 201.914,207.161 198.156,241.456L192.104,296.828L24.035,296.828L17.983,241.43C14.224,207.147 36.595,174.874 70.02,166.361C94.841,160.028 121.141,160.041 146.092,166.387ZM0.511,243.329L7.427,306.559C7.911,311.025 11.67,314.391 16.163,314.391L199.989,314.391C204.469,314.391 208.228,311.025 208.712,306.565L215.628,243.356C220.317,200.415 192.223,159.996 150.284,149.328C136.466,145.81 122.242,144.056 108.03,144.056C93.78,144.056 79.529,145.817 65.685,149.347C23.838,160.008 -4.177,200.415 0.511,243.329Z" style="fill:rgb(35,31,32);fill-rule:nonzero;"/>
        <path d="M372.872,0.912C340.721,0.912 314.564,27.068 314.564,59.219C314.564,91.37 340.721,117.526 372.872,117.526C405.023,117.526 431.18,91.37 431.18,59.219C431.18,27.068 405.023,0.912 372.872,0.912ZM372.872,18.4C395.416,18.4 413.691,36.675 413.691,59.219C413.691,81.763 395.416,100.038 372.872,100.038C350.328,100.038 332.053,81.763 332.053,59.219C332.053,36.675 350.328,18.4 372.872,18.4Z" style="fill:rgb(35,31,32);fill-rule:nonzero;"/>
        <path d="M108.069,0.912C75.918,0.912 49.761,27.068 49.761,59.219C49.761,91.37 75.918,117.526 108.069,117.526C140.22,117.526 166.377,91.37 166.377,59.219C166.377,27.068 140.22,0.912 108.069,0.912ZM108.069,18.4C130.614,18.4 148.888,36.675 148.888,59.219C148.888,81.763 130.614,100.038 108.069,100.038C85.525,100.038 67.25,81.763 67.25,59.219C67.25,36.675 85.525,18.4 108.069,18.4Z" style="fill:rgb(35,31,32);fill-rule:nonzero;"/>
    </g>
</svg>
